Coordinates
version=1
nRows=32
nColumns=22
inDegrees=yes

Units are S.I. units (second, meters, Newtons, ...)
If the header above contains a line with 'inDegrees', this indicates whether rotational values are in degrees (yes) or radians (no).

endheader
time	pelvis_tilt	pelvis_list	pelvis_rotation	pelvis_tx	pelvis_ty	pelvis_tz	hip_flexion_r	hip_adduction_r	hip_rotation_r	knee_angle_r	ankle_angle_r	subtalar_angle_r	hip_flexion_l	hip_adduction_l	hip_rotation_l	knee_angle_l	ankle_angle_l	subtalar_angle_l	lumbar_extension	lumbar_bending	lumbar_rotation
      1.36000000	    -12.19188523	      2.96117563	     -4.95552893	     -0.75963162	      0.97015444	      0.20511586	     30.58648107	     -3.44042121	      2.50704683	    -39.67305268	     18.40792057	     -0.93715789	     17.38658530	      6.10401943	     -9.47489379	    -16.19617535	     19.35645397	     -4.98164110	      2.55914981	     -2.34319703	      3.85559319
      1.37000000	    -12.07771695	      3.08701075	     -5.00750033	     -0.75835699	      0.97008575	      0.20423035	     31.12294302	     -3.53528401	      2.73492623	    -40.83641053	     18.23238395	     -1.02857543	     17.13662940	      6.31323446	     -9.53817767	    -16.06784778	     19.38918043	     -5.04248752	      2.39367836	     -2.46581246	      3.75042742
      1.38000000	    -11.97221937	      3.17564240	     -5.03114269	     -0.75701128	      0.97005052	      0.20336637	     31.63610725	     -3.59781352	      2.91815866	    -41.91236560	     18.09976019	     -1.14181534	     16.90259848	      6.48536819	     -9.57558984	    -15.96773916	     19.42676429	     -5.09785444	      2.23640037	     -2.54923442	      3.61389725
      1.39000000	    -11.87524132	      3.22290277	     -5.02049134	     -0.75559677	      0.97004795	      0.20251034	     32.12098158	     -3.62929996	      3.04569745	    -42.88231814	     18.01951862	     -1.24879467	     16.68190729	      6.61837137	     -9.57597185	    -15.89242975	     19.47308997	     -5.13489885	      2.08450750	     -2.58797571	      3.44332077
      1.40000000	    -11.79238774	      3.22939481	     -4.97761751	     -0.75412018	      0.97007063	      0.20168660	     32.58088620	     -3.62568178	      3.12396903	    -43.72927284	     17.99319897	     -1.34694657	     16.48311432	      6.70850627	     -9.54329593	    -15.84796035	     19.52556211	     -5.16233998	      1.94526847	     -2.58792147	      3.24203870
      1.41000000	    -11.71207656	      3.19294966	     -4.90707094	     -0.75256675	      0.97013310	      0.20087349	     33.00379695	     -3.59245251	      3.13780516	    -44.44213403	     18.00286388	     -1.40759850	     16.28945524	      6.75517265	     -9.49193985	    -15.82730565	     19.60335752	     -5.17365949	      1.80495368	     -2.54122593	      3.02909274
      1.42000000	    -11.64640244	      3.13230813	     -4.81363053	     -0.75096243	      0.97021257	      0.20006200	     33.40721476	     -3.53992183	      3.12038229	    -45.01516072	     18.04820254	     -1.44822645	     16.11320005	      6.77892516	     -9.40754486	    -15.82124328	     19.66970833	     -5.17883734	      1.67650633	     -2.46443776	      2.79522469
      1.43000000	    -11.59896819	      3.03958718	     -4.69168388	     -0.74929826	      0.97029794	      0.19926100	     33.79437432	     -3.47138831	      3.03915425	    -45.44519977	     18.10652030	     -1.45968081	     15.95690659	      6.77088181	     -9.28224001	    -15.83131291	     19.73748304	     -5.18224159	      1.56618366	     -2.35515358	      2.54362102
      1.44000000	    -11.56567904	      2.91113958	     -4.55321612	     -0.74758657	      0.97039178	      0.19847842	     34.16204440	     -3.38038398	      2.90222005	    -45.72725172	     18.15080800	     -1.43139659	     15.81722855	      6.72427673	     -9.13327112	    -15.85750997	     19.81737034	     -5.18735672	      1.46765740	     -2.20577275	      2.28553255
      1.45000000	    -11.54429078	      2.75547739	     -4.41035137	     -0.74581719	      0.97049103	      0.19771313	     34.51301643	     -3.27224886	      2.72043921	    -45.86710575	     18.16469532	     -1.36806217	     15.68893773	      6.64746788	     -8.97689260	    -15.89292919	     19.90217485	     -5.19870098	      1.38089625	     -2.02234638	      2.04310628
      1.46000000	    -11.53426481	      2.58023507	     -4.27054265	     -0.74401332	      0.97058332	      0.19696997	     34.85418488	     -3.15873018	      2.48932158	    -45.87152562	     18.13911616	     -1.27463422	     15.57553822	      6.54668003	     -8.81053516	    -15.94158167	     19.99791398	     -5.22235394	      1.30084704	     -1.81464300	      1.81349906
      1.47000000	    -11.52732565	      2.39981381	     -4.14177373	     -0.74215025	      0.97067492	      0.19627639	     35.18077312	     -3.04636613	      2.22742305	    -45.75351821	     18.06361599	     -1.17230715	     15.46260524	      6.43562327	     -8.64990803	    -15.99230202	     20.10440713	     -5.25414137	      1.22462848	     -1.60412776	      1.61022799
      1.48000000	    -11.52088135	      2.21880303	     -4.02227705	     -0.74023150	      0.97076490	      0.19561421	     35.49351844	     -2.94240604	      1.93936681	    -45.52315168	     17.94013106	     -1.06605797	     15.34858529	      6.31977005	     -8.49676281	    -16.04615907	     20.21414318	     -5.29143264	      1.14543580	     -1.39254212	      1.43151952
      1.49000000	    -11.51145503	      2.04603540	     -3.91919353	     -0.73824576	      0.97085840	      0.19500604	     35.78835839	     -2.84970816	      1.63352681	    -45.18321953	     17.77141511	     -0.95975313	     15.22866785	      6.20713668	     -8.35578791	    -16.10101906	     20.32837443	     -5.33092288	      1.06326261	     -1.19372087	      1.28130732
      1.50000000	    -11.49714028	      1.88700605	     -3.84035614	     -0.73619575	      0.97094057	      0.19446427	     36.07489931	     -2.76534480	      1.32854077	    -44.75976367	     17.56112141	     -0.85995459	     15.09795692	      6.10115156	     -8.23220051	    -16.15102246	     20.44347901	     -5.36695559	      0.97241154	     -1.01173672	      1.16496724
      1.51000000	    -11.48103495	      1.73964913	     -3.78503043	     -0.73407777	      0.97100334	      0.19400082	     36.35389188	     -2.68433548	      1.02444250	    -44.25480776	     17.32035720	     -0.76447035	     14.96017731	      5.99911523	     -8.12762697	    -16.19710061	     20.56450810	     -5.39976608	      0.87809752	     -0.84680055	      1.08011420
      1.52000000	    -11.46531164	      1.60568410	     -3.75350832	     -0.73189018	      0.97103496	      0.19360707	     36.62971427	     -2.60345041	      0.73287870	    -43.67799093	     17.05831364	     -0.67043975	     14.81722620	      5.90332052	     -8.04371365	    -16.23897075	     20.69241311	     -5.42879229	      0.78226168	     -0.69765699	      1.02799184
      1.53000000	    -11.45047203	      1.48155342	     -3.74535087	     -0.72962707	      0.97102992	      0.19329992	     36.90311169	     -2.51610223	      0.45426382	    -43.03671449	     16.78630682	     -0.57083822	     14.66973841	      5.80847918	     -7.97951949	    -16.27980922	     20.82911660	     -5.45461748	      0.68698378	     -0.56400405	      1.00241836
      1.54000000	    -11.43753721	      1.36655330	     -3.75589314	     -0.72729706	      0.97098499	      0.19306756	     37.17594704	     -2.42118287	      0.19283489	    -42.33804659	     16.50839772	     -0.45823943	     14.51867732	      5.71503335	     -7.93556921	    -16.31795568	     20.97387532	     -5.47579988	      0.59157895	     -0.44377109	      0.99981598
      1.55000000	    -11.42320221	      1.25321449	     -3.77627817	     -0.72489395	      0.97090428	      0.19288110	     37.44154054	     -2.31969855	     -0.06810264	    -41.58585929	     16.24693051	     -0.31326629	     14.36143572	      5.61674956	     -7.92441426	    -16.35625137	     21.13346470	     -5.49138553	      0.49154305	     -0.32169331	      1.00404737
      1.56000000	    -11.41365719	      1.15868692	     -3.81676210	     -0.72243277	      0.97078161	      0.19279358	     37.71559292	     -2.21040451	     -0.29091993	    -40.79322319	     15.94919170	     -0.14847513	     14.19642925	      5.52996896	     -7.92354905	    -16.37784341	     21.28871546	     -5.48861887	      0.39473334	     -0.23022548	      1.03660204
      1.57000000	    -11.40649758	      1.07468733	     -3.86945579	     -0.71990968	      0.97062192	      0.19277491	     37.99024516	     -2.09262695	     -0.49146961	    -39.95877235	     15.62703432	      0.03601537	     14.02541576	      5.44767691	     -7.94069580	    -16.39248631	     21.44729800	     -5.46628538	      0.29724446	     -0.15257828	      1.08330393
      1.58000000	    -11.39726372	      0.99530885	     -3.93295369	     -0.71731623	      0.97043337	      0.19283155	     38.25849848	     -1.96161571	     -0.67348800	    -39.08705421	     15.27909998	      0.25712746	     13.84409978	      5.36382515	     -7.97149158	    -16.40328101	     21.61496173	     -5.41585051	      0.19370487	     -0.08415951	      1.14257262
      1.59000000	    -11.39212638	      0.92304097	     -4.00629226	     -0.71465221	      0.97020462	      0.19295128	     38.52682363	     -1.81979039	     -0.83481761	    -38.18134901	     14.88926532	      0.49139368	     13.66213971	      5.28103098	     -8.02196586	    -16.41590898	     21.78356261	     -5.34955745	      0.09187047	     -0.02386192	      1.20820659
      1.60000000	    -11.39022151	      0.85541256	     -4.08706232	     -0.71191107	      0.96993635	      0.19313473	     38.79255616	     -1.66750529	     -0.98331320	    -37.24674268	     14.46422934	      0.74776947	     13.47745179	      5.19835438	     -8.08209097	    -16.42792574	     21.96048767	     -5.27186497	     -0.00766062	      0.02976966	      1.27622916
      1.61000000	    -11.39481407	      0.80634394	     -4.16902776	     -0.70911718	      0.96961598	      0.19337174	     39.06661061	     -1.52154112	     -1.11737511	    -36.29746596	     13.99453710	      0.99445487	     13.29872772	      5.13481313	     -8.11481772	    -16.44543322	     22.13130094	     -5.20716594	     -0.10540398	      0.05410901	      1.36872446
      1.62000000	    -11.39123156	      0.73120557	     -4.25665186	     -0.70617548	      0.96928012	      0.19364860	     39.30562740	     -1.34578386	     -1.26952693	    -35.31101010	     13.56209887	      1.36673238	     13.09924917	      5.03691735	     -8.20354376	    -16.46202719	     22.35629967	     -5.11022660	     -0.20881675	      0.11801826	      1.41654856
      1.63000000	    -11.39263073	      0.68519106	     -4.34150440	     -0.70316888	      0.96888818	      0.19393387	     39.55508229	     -1.19569120	     -1.41658872	    -34.32954108	     13.12937252	      1.75531081	     12.90148700	      4.97491990	     -8.25907876	    -16.47614059	     22.56936725	     -5.03579490	     -0.30986934	      0.14801250	      1.47833393
      1.64000000	    -11.39372617	      0.64961171	     -4.42266276	     -0.70005556	      0.96845267	      0.19423459	     39.79804289	     -1.05602418	     -1.56918055	    -33.35086805	     12.74242287	      2.20288610	     12.69656442	      4.92566060	     -8.30593950	    -16.48899195	     22.80004141	     -4.97554002	     -0.40993584	      0.16740876	      1.53060902
      1.65000000	    -11.38491705	      0.63787437	     -4.49837412	     -0.69684761	      0.96798045	      0.19454785	     40.03450465	     -0.94160287	     -1.71101928	    -32.39955767	     12.44802247	      2.79243536	     12.47217214	      4.90771800	     -8.31514965	    -16.49285396	     23.05035872	     -4.91520232	     -0.52283128	      0.15613358	      1.58790486
      1.66000000	    -11.39373010	      0.61610567	     -4.56952909	     -0.69353048	      0.96744799	      0.19487342	     40.27824909	     -0.81997096	     -1.86990217	    -31.46304419	     12.16292527	      3.22098272	     12.27524319	      4.87154572	     -8.37385597	    -16.52703438	     23.28472813	     -4.90669299	     -0.61255809	      0.16622710	      1.61618313
      1.67000000	    -11.38437546	      0.60514983	     -4.63403185	     -0.69009726	      0.96690218	      0.19519829	     40.50185324	     -0.71517701	     -2.00956360	    -30.56894946	     11.96848725	      3.76649851	     12.04878898	      4.85411855	     -8.39546440	    -16.55350425	     23.54553856	     -4.89616262	     -0.72287660	      0.16580549	      1.64027051
